<?xml version="1.0" standalone="no"?>
<!DOCTYPE svg PUBLIC "-//W3C//DTD SVG 20010904//EN"
 "http://www.w3.org/TR/2001/REC-SVG-20010904/DTD/svg10.dtd">
<svg version="1.0" xmlns="http://www.w3.org/2000/svg"
 width="260.000000pt" height="260.000000pt" viewBox="0 0 260.000000 260.000000"
 preserveAspectRatio="xMidYMid meet">
<metadata>
Created by potrace 1.14, written by Peter Selinger 2001-2017
</metadata>
<g transform="translate(0.000000,260.000000) scale(0.100000,-0.100000)"
fill="#000000" stroke="none">
<path d="M0 2450 c0 -118 3 -150 13 -144 10 6 10 4 0 -7 -10 -10 -13 -255 -13
-1156 l0 -1143 1300 0 1300 0 0 1140 c0 1133 0 1140 -20 1140 -11 0 -20 -7
-20 -15 0 -16 -25 -21 -34 -6 -3 4 -20 11 -37 15 -26 5 -29 9 -20 20 10 11 7
17 -10 30 -19 13 -25 14 -38 2 -9 -8 -27 -17 -41 -21 -23 -7 -24 -6 -11 9 12
15 12 19 -2 34 -16 15 -17 15 -17 -1 0 -21 -16 -23 -23 -3 -3 8 -1 17 6 20 7
2 2 5 -10 5 -13 1 -23 7 -23 16 0 10 -10 15 -30 15 -16 0 -30 5 -30 10 0 6 5
10 10 10 6 0 10 5 10 10 0 6 -14 10 -31 10 -26 0 -30 -3 -27 -22 2 -17 -3 -24
-19 -26 -13 -2 -23 1 -23 7 0 6 6 11 14 11 9 0 13 10 12 28 -2 36 -15 55 -32
48 -16 -6 -54 13 -54 28 0 4 7 3 15 -4 11 -9 19 -10 26 -3 7 7 0 12 -21 17
-18 3 -36 4 -40 1 -5 -3 -30 6 -56 20 -26 14 -54 25 -63 24 -9 -1 -5 -5 9 -9
23 -7 23 -8 3 -9 -33 -2 -73 17 -73 34 0 19 -56 21 -63 3 -4 -10 -6 -10 -6 0
-1 9 -183 12 -878 12 -834 0 -875 -1 -861 -17 22 -26 50 -83 46 -95 -2 -6 -19
16 -38 48 -30 51 -40 59 -67 62 l-33 3 0 -151z m446 129 c-89 -9 -161 -30
-226 -66 -25 -13 -36 -17 -25 -8 60 49 175 84 275 83 49 -1 47 -2 -24 -9z
m117 -6 c-7 -2 -19 -2 -25 0 -7 3 -2 5 12 5 14 0 19 -2 13 -5z m94 -27 c96
-45 193 -158 256 -299 40 -88 15 -64 -37 37 -78 149 -152 227 -253 266 -26 11
-41 19 -33 19 8 1 38 -10 67 -23z m1349 -23 c-4 -5 -20 -8 -36 -8 -15 0 -26 3
-23 8 2 4 18 7 35 7 17 0 28 -3 24 -7z m78 -21 c3 -5 -8 -6 -25 -4 -16 2 -29
6 -29 8 0 8 49 4 54 -4z m66 -47 c-7 -9 -15 -13 -18 -10 -3 2 1 11 8 20 7 9
15 13 18 10 3 -2 -1 -11 -8 -20z m-394 -50 c50 -9 112 -32 173 -62 53 -26 102
-47 108 -47 7 1 11 -2 8 -6 -3 -5 23 -29 58 -53 146 -105 304 -294 392 -472
92 -185 105 -292 51 -411 -64 -141 -199 -205 -353 -169 -37 9 -78 13 -90 10
-16 -4 -21 -1 -18 7 10 27 -350 30 -471 5 -140 -30 -288 -105 -391 -200 -59
-54 -197 -225 -241 -299 -18 -31 -44 -68 -57 -82 -13 -14 -19 -26 -14 -26 6 0
2 -12 -8 -28 -11 -15 -32 -53 -48 -85 -87 -175 -321 -252 -490 -163 -99 53
-160 146 -224 343 -56 172 -66 240 -66 458 1 172 3 200 27 297 50 196 106 299
220 403 89 80 192 127 353 161 243 50 368 105 530 235 117 94 168 128 236 155
106 43 197 52 315 29z m694 -110 c0 -8 -4 -15 -10 -15 -5 0 -10 7 -10 15 0 8
5 15 10 15 6 0 10 -7 10 -15z m14 -50 c-4 -8 -1 -15 5 -15 6 0 11 -5 11 -10 0
-6 -11 -3 -24 7 -25 19 -25 33 -1 33 9 0 12 -6 9 -15z m-1504 -69 c0 -11 -19
-15 -25 -6 -3 5 1 10 9 10 9 0 16 -2 16 -4z"/>
<path d="M1781 2113 c-2 -86 79 -134 134 -78 31 30 34 50 6 35 -50 -26 -124 7
-134 60 -3 16 -5 11 -6 -17z"/>
<path d="M2075 2039 c-16 -13 -26 -17 -21 -9 4 8 -4 2 -19 -14 -24 -26 -27
-36 -23 -84 4 -48 10 -60 41 -89 85 -78 189 -4 174 124 -6 56 -31 83 -83 90
-31 4 -45 0 -69 -18z m18 -114 c10 -4 29 -3 43 4 16 7 23 7 19 1 -4 -7 3 -9
19 -6 33 6 43 -10 20 -35 -34 -38 -106 -22 -134 31 -10 19 -3 21 33 5z"/>
<path d="M1630 1983 c-38 -48 -8 -144 49 -159 32 -9 73 17 89 56 l12 31 -25
-17 c-31 -20 -79 -13 -111 17 -24 22 -22 51 4 82 8 9 12 17 9 17 -3 0 -15 -12
-27 -27z"/>
<path d="M1698 1933 c6 -2 18 -2 25 0 6 3 1 5 -13 5 -14 0 -19 -2 -12 -5z"/>
<path d="M1805 1708 c3 -43 37 -102 71 -124 21 -15 27 -14 69 7 46 23 77 51
39 34 -85 -36 -157 4 -177 100 -3 11 -3 3 -2 -17z"/>
<path d="M1480 1700 c0 -33 20 -76 44 -92 6 -4 26 -8 44 -8 35 0 82 37 82 65
0 19 -14 20 -29 1 -13 -16 -58 -18 -84 -4 -10 5 -27 24 -37 41 l-20 32 0 -35z"/>
<path d="M554 1541 c-23 -10 -45 -24 -48 -30 -7 -11 -5 -12 91 -15 29 -2 63
-7 75 -13 13 -6 38 -17 56 -23 24 -9 30 -16 22 -24 -8 -8 -13 -8 -18 1 -5 8
-36 12 -97 10 -77 -2 -96 -6 -135 -29 -62 -36 -94 -73 -126 -142 -23 -52 -26
-67 -22 -140 12 -230 170 -341 360 -254 114 52 171 142 176 277 3 46 8 78 12
71 12 -19 30 -2 30 29 0 79 -57 192 -126 249 -65 54 -173 68 -250 33z m84
-128 c-10 -2 -28 -2 -40 0 -13 2 -5 4 17 4 22 1 32 -1 23 -4z m95 -33 c26 -16
47 -34 47 -40 0 -5 -9 -1 -21 11 -11 11 -39 29 -62 40 -23 10 -35 19 -26 19 8
0 36 -13 62 -30z m97 -122 c0 -13 0 -14 -29 32 l-23 35 26 -28 c14 -15 26 -33
26 -39z m-164 14 c-6 -6 -56 10 -56 18 0 5 13 3 30 -3 16 -6 28 -13 26 -15z
m-65 -132 c5 0 9 -9 9 -21 0 -14 -5 -19 -17 -17 -10 2 -17 10 -15 16 1 7 -2
12 -8 12 -5 0 -10 5 -10 11 0 6 7 8 16 5 9 -3 20 -6 25 -6z m148 -150 c0 -8
-9 3 -19 25 -24 53 -24 70 0 25 11 -19 19 -42 19 -50z"/>
<path d="M1703 1528 c-21 -18 -32 -25 -24 -15 8 9 11 20 8 23 -10 10 -37 -53
-37 -86 0 -71 54 -150 102 -150 57 0 128 76 128 137 0 57 -64 123 -119 123
-11 0 -37 -15 -58 -32z m93 -138 c27 0 32 -15 8 -24 -29 -11 -59 -6 -84 15
-23 19 -24 20 -4 16 12 -2 28 -1 35 4 8 5 15 4 17 -1 2 -6 15 -10 28 -10z"/>
<path d="M1364 1330 c-48 -11 -103 -48 -119 -81 -14 -26 -14 -30 5 -49 11 -11
28 -20 38 -20 35 0 121 51 142 85 19 30 19 65 0 65 -5 0 -14 2 -22 4 -7 2 -27
1 -44 -4z"/>
<path d="M1958 2593 c7 -3 16 -2 19 1 4 3 -2 6 -13 5 -11 0 -14 -3 -6 -6z"/>
<path d="M2065 2540 c-3 -5 -1 -10 4 -10 6 0 11 5 11 10 0 6 -2 10 -4 10 -3 0
-8 -4 -11 -10z"/>
<path d="M2200 2459 c0 -5 5 -7 10 -4 6 3 10 8 10 11 0 2 -4 4 -10 4 -5 0 -10
-5 -10 -11z"/>
<path d="M2396 2347 c3 -10 9 -15 12 -12 3 3 0 11 -7 18 -10 9 -11 8 -5 -6z"/>
<path d="M2488 2283 c7 -3 16 -2 19 1 4 3 -2 6 -13 5 -11 0 -14 -3 -6 -6z"/>
</g>
</svg>
